<svg id="Layer_1" data-name="Layer 1" xmlns="http://www.w3.org/2000/svg" viewBox="0 0 922.47 349.78"><defs><style>.cls-1{fill:#ed2027;}</style></defs><path class="cls-1" d="M73.32,54.52c23.88-18.89,67-7.21,111.11,25.76h2.36C129.8,33.64,71.54,16,39.91,41,12.47,62.75,11.8,111.38,33.16,167.08H72.29C51,117.17,49.69,73.23,73.32,54.52Z" transform="translate(-18.13 -29.65)"/><path class="cls-1" d="M293.26,332.41c-35.51,28.1-113.53-11.32-174.27-88.05-3.85-4.88-7.49-9.79-11-14.71l20.59-13.51L55.93,182.82l1.65,79.92,20.55-13.49c4.1,5.78,8.38,11.53,12.9,17.24C162.5,356.79,255.49,402.25,298.72,368c20.11-15.92,18.61-46.29,11.84-83.3C311.21,305.73,305.7,322.57,293.26,332.41Z" transform="translate(-18.13 -29.65)"/><path class="cls-1" d="M727.33,187.79v-.44a22.94,22.94,0,0,0,17.56-22.73c0-20.07-18.3-29.52-36.75-29.52-17.41,0-33.94,9-39,26.57l23,5.31c1.63-7.08,7.24-11.66,14.32-11.66,6.79,0,13.13,4,13.13,11.51,0,10-9,12.4-18.3,12.4h-7.23v18.15h6.64c10.33,0,21.26,3.1,21.26,13.73,0,9.74-8.12,13.28-15.21,13.28a17.84,17.84,0,0,1-17.71-13l-23,6C671.69,236.94,689,245.2,708,245.2c19.19,0,39.41-10.33,39.41-33.21C747.4,200.33,739.13,190.59,727.33,187.79Z" transform="translate(-18.13 -29.65)"/><path class="cls-1" d="M811.16,173.18a23.39,23.39,0,0,0-7.38,1.18l.44-.74,25.68-35.71h-30l-25.23,37.63c-6.94,10.33-11.66,19.92-11.66,32.32,0,22.88,18.44,37.34,41.17,37.34,22.58,0,41.18-14.17,41.18-37.93C845.4,186.9,829.46,173.18,811.16,173.18Zm-6.94,51.36c-9.89,0-16.38-7.53-16.38-16.53,0-9.74,6.79-16.53,16.53-16.53s16.23,6.94,16.23,16.38C820.6,217.75,814,224.54,804.22,224.54Z" transform="translate(-18.13 -29.65)"/><path class="cls-1" d="M899.86,135.1c-29.67,0-41,25.24-41,54.76s11.36,55.34,41,55.34,40.73-25.68,40.73-55.34S929.38,135.1,899.86,135.1Zm0,88.85c-13.14,0-15.64-20.67-15.64-34.09,0-13.14,2.5-33.8,15.64-33.8s15.35,20.66,15.35,33.8C915.21,203.28,912.85,224,899.86,224Z" transform="translate(-18.13 -29.65)"/><path class="cls-1" d="M198,112.15v-2.61H137.84v2.61h20.72v88.3q0,22.77,11.85,33.79t34.26,11q14.75,0,23.71-4.1a35.62,35.62,0,0,0,14-10.83A38.84,38.84,0,0,0,249.29,217,56.52,56.52,0,0,0,251,202.69V112.15h20.72v-2.61H227.45v2.61h20.72V199a96,96,0,0,1-.56,11.29,45.52,45.52,0,0,1-1.59,7.84,28.13,28.13,0,0,1-2.43,5.69,44.37,44.37,0,0,1-3.26,4.86,31,31,0,0,1-13.82,10.92A51.43,51.43,0,0,1,208,242.64a39.18,39.18,0,0,1-13.25-2.06,21.73,21.73,0,0,1-9.71-6.81,31.65,31.65,0,0,1-5.88-12.51,78.22,78.22,0,0,1-2-18.94V112.15Z" transform="translate(-18.13 -29.65)"/><path class="cls-1" d="M331,237.69a13.14,13.14,0,0,1-10.55,4.76,13.66,13.66,0,0,1-3.83-.56,8.12,8.12,0,0,1-3.64-2.33,12.73,12.73,0,0,1-2.7-5,28.83,28.83,0,0,1-1-8.5V165h26.51v-2.61H309.21V136.79a12.24,12.24,0,0,1-3.92,2.15,16,16,0,0,1-4.85.65,18.5,18.5,0,0,1-4.49-.37c-.87-.25-1.8-.56-2.8-.94v24.09H278.78V165h14.37v59.36q0,9.9,5.51,15.31t19.51,5.42a21.74,21.74,0,0,0,9.33-1.78,18.09,18.09,0,0,0,6.07-4.48,18.59,18.59,0,0,0,3.45-5.69,42.24,42.24,0,0,0,1.68-5.42l-2.61-.93A23.1,23.1,0,0,1,331,237.69Z" transform="translate(-18.13 -29.65)"/><path class="cls-1" d="M365,128.76a9.87,9.87,0,1,0-7-2.89A9.55,9.55,0,0,0,365,128.76Z" transform="translate(-18.13 -29.65)"/><polygon class="cls-1" points="355.3 132.72 324.87 132.72 324.87 135.34 339.25 135.34 339.25 210.19 324.87 210.19 324.87 212.81 369.67 212.81 369.67 210.19 355.3 210.19 355.3 132.72"/><polygon class="cls-1" points="410.55 78.21 380.13 78.21 380.13 80.82 394.5 80.82 394.5 210.19 380.13 210.19 380.13 212.81 424.93 212.81 424.93 210.19 410.55 210.19 410.55 78.21"/><path class="cls-1" d="M475.53,128.76a9.87,9.87,0,1,0-7-2.89A9.56,9.56,0,0,0,475.53,128.76Z" transform="translate(-18.13 -29.65)"/><polygon class="cls-1" points="465.81 132.72 435.38 132.72 435.38 135.34 449.75 135.34 449.75 210.19 435.38 210.19 435.38 212.81 480.18 212.81 480.18 210.19 465.81 210.19 465.81 132.72"/><path class="cls-1" d="M566.63,227.7l-2.61-.93a23.1,23.1,0,0,1-5.13,10.92,13.15,13.15,0,0,1-10.55,4.76,13.66,13.66,0,0,1-3.83-.56,8.06,8.06,0,0,1-3.64-2.33,12.87,12.87,0,0,1-2.71-5,29.21,29.21,0,0,1-1-8.5V165h26.51v-2.61H537.14V136.79a12.24,12.24,0,0,1-3.92,2.15,16,16,0,0,1-4.86.65,18.46,18.46,0,0,1-4.48-.37c-.87-.25-1.8-.56-2.8-.94v24.09H506.71V165h14.37v59.36q0,9.9,5.51,15.31t19.51,5.42a21.74,21.74,0,0,0,9.33-1.78,18.09,18.09,0,0,0,6.07-4.48,18.79,18.79,0,0,0,3.45-5.69A42.24,42.24,0,0,0,566.63,227.7Z" transform="translate(-18.13 -29.65)"/><path class="cls-1" d="M628.61,165H644.1L618.9,223.6,594.82,165H610.5v-2.61H564.77V165h12.88l32.29,79.9-8.21,20.91q-3,7.45-5.42,12.6a46.37,46.37,0,0,1-4.85,8.3,16.77,16.77,0,0,1-5,4.58,11.16,11.16,0,0,1-5.5,1.4,7.12,7.12,0,0,1-3.55-.75c-.87-.5-1.31-1.56-1.31-3.17a9,9,0,0,1,1.59-5.14,8.61,8.61,0,0,0,1.59-4.94,5.34,5.34,0,0,0-.94-3.18,7,7,0,0,0-2.24-2.05,8.9,8.9,0,0,0-2.8-1,15.89,15.89,0,0,0-2.8-.28,9.16,9.16,0,0,0-6.34,2.34c-1.75,1.55-2.62,3.89-2.62,7a18.89,18.89,0,0,0,.56,4.1,11.24,11.24,0,0,0,2.43,4.67,16.17,16.17,0,0,0,5.13,3.92,19.07,19.07,0,0,0,8.68,1.68,18.28,18.28,0,0,0,7.84-1.58,20.19,20.19,0,0,0,6.26-4.77,38.11,38.11,0,0,0,5.5-8.21,118.6,118.6,0,0,0,5.23-11.76q3.18-8.22,6.35-16.33T616.29,237L647.09,165h10.08v-2.61H628.61Z" transform="translate(-18.13 -29.65)"/></svg>